REM COMMENT "Generated by IcecastMetadataRecorder https://github.com/eshaz/icecast-metadata-js"
REM BR "16"
REM METAINT "64"
REM DATE "2020-07-29T21:16:11.222Z"
TITLE "isics-all"
FILE "isics-all.mp3" WAVE
  TRACK 1 AUDIO
    TITLE "2020-07-29T21:19:50.174Z TO:24631 Dallas County Fire/EMS Operations FROM:2559982"
    INDEX 01 03:38:71
  TRACK 2 AUDIO
    TITLE "2020-07-29T21:19:52.982Z TO:7 Polk County - Westcom Law Enforcement 4 FROM:1481"
    INDEX 01 03:41:57
  TRACK 3 AUDIO
    TITLE "2020-07-29T21:19:59.246Z TO:7 Polk County - Westcom Law Enforcement 4 FROM:1377"
    INDEX 01 03:48:02
  TRACK 4 AUDIO
    TITLE "2020-07-29T21:20:02.054Z TO:5002 Department of Public Safety - Area A Law 2A - DPS District #1 FROM:11392"
    INDEX 01 03:50:62
  TRACK 5 AUDIO
    TITLE "2020-07-29T21:20:07.670Z TO:7 Polk County - Westcom Law Enforcement 4 FROM:1481"
    INDEX 01 03:56:34
  TRACK 6 AUDIO
    TITLE "2020-07-29T21:20:09.758Z TO:5002 Department of Public Safety - Area A Law 2A - DPS District #1 FROM:UNKNOWN"
    INDEX 01 03:58:40
  TRACK 7 AUDIO
    TITLE "2020-07-29T21:20:14.654Z TO:24631 Dallas County Fire/EMS Operations FROM:2520002"
    INDEX 01 04:03:32
  TRACK 8 AUDIO
    TITLE "2020-07-29T21:20:18.182Z TO:24631 Dallas County Fire/EMS Operations FROM:UNKNOWN"
    INDEX 01 04:06:72
  TRACK 9 AUDIO
    TITLE "2020-07-29T21:20:20.270Z TO:5002 Department of Public Safety - Area A Law 2A - DPS District #1 FROM:11498"
    INDEX 01 04:09:04
  TRACK 10 AUDIO
    TITLE "END"
    INDEX 01 04:14:50